<svg
  xmlns="http://www.w3.org/2000/svg"
  viewBox="0 0 64 64"
  width="64"
  height="64"
  fill="none"
  stroke="#193A43"
  stroke-width="2"
>
  <!-- Stars -->
  <polygon points="32 2 34.5 10.5 43 10.5 36.25 16 38.75 24.5 32 19.5 25.25 24.5 27.75 16 21 10.5 29.5 10.5 32 2" />
  <polygon points="12 12 14 18 20 18 15.5 21.5 17.5 27.5 12 24 6.5 27.5 8.5 21.5 4 18 10 18 12 12" />
  <polygon points="52 12 54 18 60 18 55.5 21.5 57.5 27.5 52 24 46.5 27.5 48.5 21.5 44 18 50 18 52 12" />

  <!-- User Heads -->
  <circle cx="16" cy="40" r="6" />
  <circle cx="48" cy="40" r="6" />
  <circle cx="32" cy="40" r="8" />
  
  <!-- User Bodies -->
  <path d="M10 58c0-4 3-6 6-6h2c3 0 6 2 6 6" />
  <path d="M42 58c0-4 3-6 6-6h2c3 0 6 2 6 6" />
  <path d="M22 58c0-6 5-8 10-8s10 2 10 8" />
</svg>
