<svg xmlns="http://www.w3.org/2000/svg" xmlns:xlink="http://www.w3.org/1999/xlink" width="160" height="160" viewBox="0 0 160 160"><defs><clipPath id="a"><rect width="115.633" height="118.663" fill="none"/></clipPath></defs><g transform="translate(-878 -641)"><rect width="160" height="160" transform="translate(878 641)" fill="#fff"/><g transform="translate(900.4 661.571)"><g clip-path="url(#a)"><path d="M109.706,34.906A57.47,57.47,0,0,0,82.283,8.1c-.452-.217-.852-.374-1.047-.99-1.521-4.816-4.664-7.092-9.7-7.1C67.014,0,62.493,0,57.973,0V.016c-4.8,0-9.6-.04-14.393.01A9.22,9.22,0,0,0,34.3,7.076a1.735,1.735,0,0,1-1.169,1.162,57.753,57.753,0,0,0-31.8,64.681C9.08,109.533,49.817,129.458,83.2,112.6c21.025-10.617,31.9-28.191,32.421-51.916a54.205,54.205,0,0,0-5.913-25.78M15.353,90.414c-.774.581-1.1.59-1.681-.276-17.619-26.2-8.213-62.517,19.914-76.822.752-.383,1.086-.412,1.557.45a8.814,8.814,0,0,0,7.306,4.814c.6.052.814.209.812.838-.029,5.035-.024,10.072-.029,15.107a4.782,4.782,0,0,1-.95,2.516Q29.834,57.267,17.876,77.783a10.117,10.117,0,0,0-1.555,4.8c2.562-1.912,4.937-3.688,7.316-5.456a3.534,3.534,0,0,0,.824-1.147q7.1-11.938,14.186-23.887a1.666,1.666,0,0,1,1.666-.959c5.711.038,11.42.007,17.131.036a2.779,2.779,0,0,0,1.838-.626c1.735-1.345,3.514-2.635,5.533-4.14H42.163c1.386-2.281,2.607-4.437,3.976-6.5a11.478,11.478,0,0,0,1.895-6.728c-.069-6.028-.033-12.055.026-18.083.01-.962-.3-1.216-1.188-1.183-1.109.043-2.221-.021-3.33-.052a4.6,4.6,0,0,1-4.785-4.416,4.573,4.573,0,0,1,4.821-4.652c4.083-.064,8.168-.045,12.253-.048q8.031,0,16.062.024a4.446,4.446,0,0,1,4.466,2.731,4.435,4.435,0,0,1-3.847,6.34c-1.345.1-2.681.29-4.026.364-.64.036-.736.314-.769.878-.374,6.459-.181,12.924-.164,19.385,0,2.3,1.019,4.5,3.2,7.435,1.081-.8,2.15-1.616,3.252-2.388.483-.336.493-.659.152-1.064-1.85-2.195-1.976-4.8-1.907-7.506.1-3.726.043-7.454.014-11.182-.007-.8.145-1.145,1.078-1.233a8.7,8.7,0,0,0,7.113-4.906c.443-.826.752-.836,1.5-.45A54.326,54.326,0,0,1,98.8,26.695c.569.678.626,1.012-.169,1.6Q72.59,47.664,46.6,67.091,30.97,78.747,15.353,90.414M68.938,112.6a56.384,56.384,0,0,1-11.1,1.19C42.1,113.477,28.851,107.633,18.2,95.97c-.7-.759-.8-1.143.145-1.843Q59.818,63.257,101.228,32.3c.924-.69,1.271-.662,1.893.343,19.252,31.179,1.6,72.5-34.183,79.955M96.31,75.228c-4.245-7.054-8.508-14.1-12.731-21.164-.44-.736-.736-1.017-1.464-.324a10.243,10.243,0,0,1-2,1.481c-.9.509-.878.967-.359,1.819,4.471,7.335,8.889,14.7,13.315,22.063a7.2,7.2,0,0,1,1.326,3.264c.209,3.688-2.152,6.185-5.9,6.185q-25.939.011-51.876.01a2.183,2.183,0,0,0-1.483.24c-1.914,1.45-3.845,2.881-6.047,4.526H30.77q19.929,0,39.858,0c6.149,0,12.3.1,18.443-.043A10.247,10.247,0,0,0,97.979,78.1c-.5-.983-1.1-1.924-1.669-2.873" transform="translate(0 0)" fill="#fefefe"/><path d="M109.706,34.906A57.47,57.47,0,0,0,82.283,8.1c-.452-.217-.852-.374-1.047-.99-1.521-4.816-4.664-7.092-9.7-7.1C67.014,0,62.493,0,57.973,0V.016c-4.8,0-9.6-.04-14.393.01A9.22,9.22,0,0,0,34.3,7.076a1.735,1.735,0,0,1-1.169,1.162,57.753,57.753,0,0,0-31.8,64.681C9.08,109.533,49.817,129.458,83.2,112.6c21.025-10.617,31.9-28.191,32.421-51.916a54.205,54.205,0,0,0-5.913-25.78M15.353,90.414c-.774.581-1.1.59-1.681-.276-17.619-26.2-8.213-62.517,19.914-76.822.752-.383,1.086-.412,1.557.45a8.814,8.814,0,0,0,7.306,4.814c.6.052.814.209.812.838-.029,5.035-.024,10.072-.029,15.107a4.782,4.782,0,0,1-.95,2.516Q29.834,57.267,17.876,77.783a10.117,10.117,0,0,0-1.555,4.8c2.562-1.912,4.937-3.688,7.316-5.456a3.534,3.534,0,0,0,.824-1.147q7.1-11.938,14.186-23.887a1.666,1.666,0,0,1,1.666-.959c5.711.038,11.42.007,17.131.036a2.779,2.779,0,0,0,1.838-.626c1.735-1.345,3.514-2.635,5.533-4.14H42.163c1.386-2.281,2.607-4.437,3.976-6.5a11.478,11.478,0,0,0,1.895-6.728c-.069-6.028-.033-12.055.026-18.083.01-.962-.3-1.216-1.188-1.183-1.109.043-2.221-.021-3.33-.052a4.6,4.6,0,0,1-4.785-4.416,4.573,4.573,0,0,1,4.821-4.652c4.083-.064,8.168-.045,12.253-.048q8.031,0,16.062.024a4.446,4.446,0,0,1,4.466,2.731,4.435,4.435,0,0,1-3.847,6.34c-1.345.1-2.681.29-4.026.364-.64.036-.736.314-.769.878-.374,6.459-.181,12.924-.164,19.385,0,2.3,1.019,4.5,3.2,7.435,1.081-.8,2.15-1.616,3.252-2.388.483-.336.493-.659.152-1.064-1.85-2.195-1.976-4.8-1.907-7.506.1-3.726.043-7.454.014-11.182-.007-.8.145-1.145,1.078-1.233a8.7,8.7,0,0,0,7.113-4.906c.443-.826.752-.836,1.5-.45A54.326,54.326,0,0,1,98.8,26.695c.569.678.626,1.012-.169,1.6Q72.59,47.664,46.6,67.091,30.97,78.747,15.353,90.414M68.938,112.6a56.384,56.384,0,0,1-11.1,1.19C42.1,113.477,28.851,107.633,18.2,95.97c-.7-.759-.8-1.143.145-1.843Q59.818,63.257,101.228,32.3c.924-.69,1.271-.662,1.893.343,19.252,31.179,1.6,72.5-34.183,79.955M96.31,75.228c-4.245-7.054-8.508-14.1-12.731-21.164-.44-.736-.736-1.017-1.464-.324a10.243,10.243,0,0,1-2,1.481c-.9.509-.878.967-.359,1.819,4.471,7.335,8.889,14.7,13.315,22.063a7.2,7.2,0,0,1,1.326,3.264c.209,3.688-2.152,6.185-5.9,6.185q-25.939.011-51.876.01a2.183,2.183,0,0,0-1.483.24c-1.914,1.45-3.845,2.881-6.047,4.526H30.77q19.929,0,39.858,0c6.149,0,12.3.1,18.443-.043A10.247,10.247,0,0,0,97.979,78.1c-.5-.983-1.1-1.924-1.669-2.873" transform="translate(0 0)" fill="#183a43"/><path d="M182.158,264.018c-6.144.14-12.293.043-18.443.043q-19.929,0-39.858,0h-1.685c2.2-1.645,4.133-3.076,6.047-4.526a2.183,2.183,0,0,1,1.483-.24q25.935-.011,51.876-.01c3.749,0,6.111-2.5,5.9-6.185a7.2,7.2,0,0,0-1.326-3.264c-4.426-7.363-8.844-14.729-13.315-22.063-.519-.852-.545-1.309.359-1.819a10.243,10.243,0,0,0,2-1.481c.728-.693,1.024-.412,1.464.324,4.223,7.066,8.487,14.11,12.731,21.164.571.95,1.164,1.89,1.669,2.873a10.247,10.247,0,0,1-8.908,15.183" transform="translate(-93.088 -170.733)" fill="#fefefe"/><path d="M182.158,264.018c-6.144.14-12.293.043-18.443.043q-19.929,0-39.858,0h-1.685c2.2-1.645,4.133-3.076,6.047-4.526a2.183,2.183,0,0,1,1.483-.24q25.935-.011,51.876-.01c3.749,0,6.111-2.5,5.9-6.185a7.2,7.2,0,0,0-1.326-3.264c-4.426-7.363-8.844-14.729-13.315-22.063-.519-.852-.545-1.309.359-1.819a10.243,10.243,0,0,0,2-1.481c.728-.693,1.024-.412,1.464.324,4.223,7.066,8.487,14.11,12.731,21.164.571.95,1.164,1.89,1.669,2.873a10.247,10.247,0,0,1-8.908,15.183" transform="translate(-93.088 -170.733)" fill="#183a43"/></g></g></g></svg>