<svg xmlns="http://www.w3.org/2000/svg" width="160" height="160" viewBox="0 0 160 160"><g transform="translate(-878 -160)"><g transform="translate(878 160)"><rect width="160" height="160" fill="#fff"/><g transform="translate(12.728 23.088)"><g transform="translate(0 0)"><path d="M134.188,46.814c-1.317,9.694-5.432,18.22-11.094,26.055-10.122,13.99-23.339,24.557-37.609,33.955-4.674,3.078-9.513,5.843-14.418,8.526a7.161,7.161,0,0,1-7.341.049c-17.085-8.97-32.836-19.735-45.9-34.071C10.053,72.819,3.848,63.322,1.263,51.9-2.061,37.234,1.181,24.215,11.3,12.99c.905-1,2.024-1.6,3.21-.576,1.284,1.119.807,2.321-.2,3.374C1.988,28.84,1.263,46.929,9.691,62.894,15.764,74.383,24.652,83.468,34.61,91.583a176.286,176.286,0,0,0,30.96,20.163,3.4,3.4,0,0,0,3.588-.033C84.448,103.5,98.6,93.689,110.75,81.23c8.509-8.74,15.406-18.484,18.582-30.565C134.945,29.334,121.087,7.772,99.295,4.5,88.086,2.818,78.276,6.143,69.866,13.665c-2.288,2.041-2.716,2.107-4.938.066A35.521,35.521,0,0,0,22.463,9.237c-.905.527-1.794,1.317-3.012.658-1.514-.823-1.432-2.732.247-3.769A38.7,38.7,0,0,1,35.564.481a39.019,39.019,0,0,1,30.664,9c1,.839,1.514.593,2.354-.1A39.631,39.631,0,0,1,95.591,0c18.122.362,34.317,14.155,38.169,32.458.2.938.049,2.008.79,2.815v9.431c-.494.642.033,1.448-.362,2.107Z" transform="translate(-0.006 0.005)" fill="#183a43"/><path d="M81.57,29.267a2.215,2.215,0,0,1,.362-2.107v2.057A.672.672,0,0,1,81.57,29.267Z" transform="translate(52.612 17.552)" fill="#183a43"/><path d="M38.4,4.954C47.519,5.185,55.584,9,62.02,16.311c1.926,2.206,2.535,2.156,4.477.016C75.368,6.534,86.346,2.518,99.168,5.942,112.517,9.5,120.532,18.731,123.1,32.227c2.041,10.764-1.531,20.459-7.143,29.511a77.768,77.768,0,0,1-5.5,7.621c-.889,1.119-1.975,1.909-3.292.839-1.317-1.053-.839-2.222.082-3.374A61.226,61.226,0,0,0,118,47.913c5.695-16.8-4.2-34.959-21.381-38.416-10.715-2.14-19.768,1.366-27.01,9.5-2.568,2.88-4.872,3.67-7.686,2.551a6.986,6.986,0,0,1-2.666-2.173C51.683,10.649,42.1,7.143,30.961,9.925,19.308,12.822,12.1,20.739,9.482,32.491c-1.761,7.917,0,15.455,3.522,22.615,4.888,9.925,12.311,17.809,20.59,24.919A172.826,172.826,0,0,0,62.777,99.957a2.577,2.577,0,0,0,2.93-.049c12.41-7.127,24.1-15.241,34.367-25.265a3.693,3.693,0,0,1,1.86-1.218,1.944,1.944,0,0,1,2.074.971,1.889,1.889,0,0,1-.477,2.568c-2.7,2.5-5.349,5.086-8.164,7.44a187.344,187.344,0,0,1-29.018,19.8,3.761,3.761,0,0,1-4.148.049C47.338,96.122,33.463,86.658,21.777,74.281,14.387,66.463,8.363,57.772,5.811,47.106,1.631,29.561,10.93,12.18,27.34,6.683A33.8,33.8,0,0,1,38.417,4.971Z" transform="translate(3.099 3.07)" fill="#183a43"/><path d="M79,57.305c1-.148,2.057-.016,3.078-.066a7.416,7.416,0,0,0,7.275-7.752,13.963,13.963,0,0,0-2.42-6.847A14.727,14.727,0,0,0,74,35.316c-2.206-.033-2.65-.708-2.452-2.716a14.035,14.035,0,0,0-.527-4.016c-.3-1.35-1.086-2.354-2.6-1.942-1.448.379-1.811,1.465-1.366,2.88a10.563,10.563,0,0,1,.379,4.855c-.1.543-.066,1.185-1.07,1.086-4.674-.444-10.731-7.67-10.419-12.476.066-1.251.658-1.7,1.827-1.531a10.613,10.613,0,0,1,4.082,1.811,1.838,1.838,0,0,0,2.831-.543,1.9,1.9,0,0,0-.625-2.831,12.541,12.541,0,0,0-5.942-2.535,5.308,5.308,0,0,0-6.255,5.168,13.889,13.889,0,0,0,2.024,7.6,18.268,18.268,0,0,0,9.431,8.789c-.724,1.218-1.35,2.255-1.992,3.308-8.641-8.032-20.064-10.995-30.45-2.864C29.345,36.287,27.008,34.279,23.5,34a8.565,8.565,0,1,0-.543,17.1c1.366-.016,1.7.263,1.58,1.613a17.777,17.777,0,0,0,1.234,8.427c.56,1.366,1.317,2.6,3.028,1.86,1.465-.658,1.317-1.843.807-3.275-2.057-5.794-1.267-11.209,2.847-15.867,7.719-8.789,24.607-5.5,28.672,5.53a11.986,11.986,0,0,0,3,4.79,12.141,12.141,0,0,0,8.806,3.127c-1.1,5.6.263,7.785,5.53,8.954.955.214,1.481.691,1.432,1.662-.066,1.3-.938,1.679-2.107,1.679-4.921,0-9.826,0-14.747.016-.971.016-1.185-.148-1.086-1.234a5.545,5.545,0,0,0-5.58-6.156c-.774-.033-1.564-.016-2.535-.016.4-.905.658-1.514.905-2.14a13.663,13.663,0,0,0-1.07-12.18c-.691-1.218-1.712-1.909-3.045-1.169-1.35.757-1.218,1.893-.543,3.16,2.535,4.806,1.992,8.592-1.745,12.443a2.41,2.41,0,0,0-.823,2.732c.461,1.119,1.5,1.251,2.568,1.234,1.909-.016,3.835,0,5.744-.016,1.185-.016,2.123.4,2.09,1.646-.033,1.218-.955,1.7-2.14,1.679-1.992,0-3.967-.033-5.942,0-5.283.115-10.534.247-15.126-3.078a1.732,1.732,0,0,0-2.518.593,1.848,1.848,0,0,0,.362,2.749A17.078,17.078,0,0,0,36.077,71.9a20.792,20.792,0,0,0,8.542,1.761q16.591,0,33.2,0c3.473-.016,5.958-2.173,6.189-5.267.263-3.341-1.712-5.646-5.366-6.205-1.218-.181-2.156-.642-2.074-2.024A2.821,2.821,0,0,1,79,57.305ZM22.646,47.068a4.518,4.518,0,0,1-4.329-4.526,4.439,4.439,0,0,1,4.559-4.477,4.541,4.541,0,0,1,4.477,4.609,4.668,4.668,0,0,1-4.707,4.395Zm48.7,6.041a7.045,7.045,0,0,1-6.633-6.567A7.189,7.189,0,0,1,70.74,39.4c6.551-1.037,11.752,1.992,14.073,8.147,1.3,3.456-.165,5.6-3.868,5.613H76.665c-1.778-.016-3.555.066-5.316-.049Z" transform="translate(9.192 11.191)" fill="#183a43"/></g></g></g></g></svg>