<svg xmlns="http://www.w3.org/2000/svg" xmlns:xlink="http://www.w3.org/1999/xlink" width="160" height="160" viewBox="0 0 160 160"><defs><clipPath id="a"><rect width="125.152" height="117.244" fill="none"/></clipPath></defs><g transform="translate(-1204 -670)"><rect width="160" height="160" transform="translate(1204 670)" fill="#fff"/><g transform="translate(1221.603 691.557)"><g clip-path="url(#a)"><path d="M59.1,63.463a6.463,6.463,0,1,1,6.5,6.454,6.491,6.491,0,0,1-6.5-6.454" transform="translate(-44.648 -43.239)" fill="#fefefe"/><path d="M406.438,66.71a6.392,6.392,0,1,1-6.578,6.432,6.59,6.59,0,0,1,6.578-6.432" transform="translate(-302.085 -50.525)" fill="#fefefe"/><path d="M125.152,55.814c-.553.019-.521-.449-.577-.762-1.23-6.825-5.394-11.619-10.886-15.476a43.273,43.273,0,0,0-7.619-4.338c-.491-.214-1.108-.429-1.122-1-.024-.946-.609-.98-1.281-1.017A27.774,27.774,0,0,1,97.134,31.8a100.062,100.062,0,0,0-17.567-3.6,4.361,4.361,0,0,1-3.015-1.555A128.741,128.741,0,0,0,66.285,15.773c-.687-.624-.413-1.131.169-1.6A56.893,56.893,0,0,1,75.807,7.8a35.865,35.865,0,0,1,10-3.8,14.925,14.925,0,0,1,7.36.279,11.79,11.79,0,0,1,7.267,6.735c.472,1,.929,1.548,2.086,1.143a4.392,4.392,0,0,1,1.093-.082c.533-.041.726-.306.535-.815-1.966-5.24-5.37-9.018-11-10.42-5.12-1.276-9.937.015-14.627,1.955A62.308,62.308,0,0,0,64.412,11.4c-.323.25-.653.488-.963.747a1.3,1.3,0,0,1-1.861-.085c-1.746-1.39-3.509-2.761-5.37-4.006a47.205,47.205,0,0,0-13.872-6.74A19.561,19.561,0,0,0,31.27,1.1a14.833,14.833,0,0,0-9.258,8.079c-.333.679-.147.973.582,1.024a3.559,3.559,0,0,1,.954.2,1.506,1.506,0,0,0,2.017-.8,11.323,11.323,0,0,1,8.287-5.636A20.466,20.466,0,0,1,44.616,5.474a55.718,55.718,0,0,1,14.275,8.557c1.039.837,1.064,1.068.083,2.006-1.817,1.737-3.653,3.445-5.358,5.3C52,23.1,50.386,24.864,48.873,26.712a3.409,3.409,0,0,1-2.338,1.364A111.342,111.342,0,0,0,32.011,30.74c-2.286.59-4.553,1.254-6.79,2.011-1.157.393-1.518.264-1.677-.944-.149-1.16-.677-1.213-1.648-1.017-1.743.354-1.756.3-1.474,2.077.242,1.545.176,1.652-1.259,2.3A41.428,41.428,0,0,0,7.182,43.009a22.053,22.053,0,0,0-6.4,11.107c-.122.529,0,1.249-.778,1.456a5.313,5.313,0,0,0,.611-2.142c1.516-5.8,5.157-10.071,9.857-13.586a43.864,43.864,0,0,1,8.862-5.059c.756-.328,1.091-.628.856-1.492-.22-.81-.6-1.844-.284-2.465.357-.7,1.55-.136,2.35-.405a7.383,7.383,0,0,1,1.32-.214.791.791,0,0,1,.1.218c.242,2.429.24,2.424,2.575,1.655a104.384,104.384,0,0,1,20.6-4.355,1.951,1.951,0,0,0,1.413-.774A103.977,103.977,0,0,1,58.94,15.632c.32-.3.858-.509.156-1.065C53.453,10.11,47.516,6.18,40.366,4.537c-4.242-.978-8.338-.73-11.908,2.169a13.122,13.122,0,0,0-3,3.632c-.186.318-.242.82-.841.655a16.087,16.087,0,0,0-2.981-.614c-.68-.056-.313-.5-.176-.791,2.448-5.253,6.421-8.55,12.3-9.321,5.071-.665,9.754.764,14.29,2.8a60.783,60.783,0,0,1,13.618,8.676c.675.553,1.064.631,1.792.041a59.506,59.506,0,0,1,16.65-9.945C84.324.282,88.649-.626,93.136.507,99.069,2,102.646,5.952,104.6,11.542c.2.568.066.844-.575.784a1.034,1.034,0,0,0-.245.012c-.954.133-2.125.66-2.8.291s-.841-1.657-1.313-2.5c-2.763-4.906-7.7-7.019-13.637-5.859C79.519,5.547,74.022,8.866,68.8,12.721c-.946.7-2.44,1.383-2.575,2.244-.144.915,1.426,1.664,2.242,2.484,3.035,3.052,5.986,6.177,8.759,9.464a2.146,2.146,0,0,0,1.518.822A116.878,116.878,0,0,1,100.624,32.5a22.224,22.224,0,0,0,4.575.507c-.54,1.286.364,1.674,1.377,2.147,5.353,2.5,10.253,5.626,13.974,10.311a20.228,20.228,0,0,1,4.375,9.974c.022.163.042.315.227.374" transform="translate(0 0)" fill="#fefefe"/><path d="M76.883,52.8c-1.294-7.063-5.2-12.694-10-17.818a1.791,1.791,0,0,0-2.338-.374c-5.754,3.3-10.862,7.322-14.094,13.223-2.969,5.415-2.612,10.765.883,15.882a27.538,27.538,0,0,0,6.206,6.3,2.705,2.705,0,0,1,1.137,1.871A64.749,64.749,0,0,0,61.5,81.623a1.972,1.972,0,0,0,2.457,1.257,1.888,1.888,0,0,0,1.237-2.429,8.975,8.975,0,0,0-.3-.92,67.322,67.322,0,0,1-2.118-7.189c-.174-.786-.059-1.1.753-1.373a24.357,24.357,0,0,0,7.612-4c3.749-2.984,6.018-6.73,5.986-11.648-.076-.842-.088-1.7-.24-2.528m0,0c-1.294-7.063-5.2-12.694-10-17.818a1.791,1.791,0,0,0-2.338-.374c-5.754,3.3-10.862,7.322-14.094,13.223-2.969,5.415-2.612,10.765.883,15.882a27.538,27.538,0,0,0,6.206,6.3,2.705,2.705,0,0,1,1.137,1.871A64.749,64.749,0,0,0,61.5,81.623a1.972,1.972,0,0,0,2.457,1.257,1.888,1.888,0,0,0,1.237-2.429,8.975,8.975,0,0,0-.3-.92,67.322,67.322,0,0,1-2.118-7.189c-.174-.786-.059-1.1.753-1.373a24.357,24.357,0,0,0,7.612-4c3.749-2.984,6.018-6.73,5.986-11.648-.076-.842-.088-1.7-.24-2.528m0,0c-1.294-7.063-5.2-12.694-10-17.818a1.791,1.791,0,0,0-2.338-.374c-5.754,3.3-10.862,7.322-14.094,13.223-2.969,5.415-2.612,10.765.883,15.882a27.538,27.538,0,0,0,6.206,6.3,2.705,2.705,0,0,1,1.137,1.871A64.749,64.749,0,0,0,61.5,81.623a1.972,1.972,0,0,0,2.457,1.257,1.888,1.888,0,0,0,1.237-2.429,8.975,8.975,0,0,0-.3-.92,67.322,67.322,0,0,1-2.118-7.189c-.174-.786-.059-1.1.753-1.373a24.357,24.357,0,0,0,7.612-4c3.749-2.984,6.018-6.73,5.986-11.648-.076-.842-.088-1.7-.24-2.528m0,0c-1.294-7.063-5.2-12.694-10-17.818a1.791,1.791,0,0,0-2.338-.374c-5.754,3.3-10.862,7.322-14.094,13.223-2.969,5.415-2.612,10.765.883,15.882a27.538,27.538,0,0,0,6.206,6.3,2.705,2.705,0,0,1,1.137,1.871A64.749,64.749,0,0,0,61.5,81.623a1.972,1.972,0,0,0,2.457,1.257,1.888,1.888,0,0,0,1.237-2.429,8.975,8.975,0,0,0-.3-.92,67.322,67.322,0,0,1-2.118-7.189c-.174-.786-.059-1.1.753-1.373a24.357,24.357,0,0,0,7.612-4c3.749-2.984,6.018-6.73,5.986-11.648-.076-.842-.088-1.7-.24-2.528m0,0c-1.294-7.063-5.2-12.694-10-17.818a1.791,1.791,0,0,0-2.338-.374c-5.754,3.3-10.862,7.322-14.094,13.223-2.969,5.415-2.612,10.765.883,15.882a27.538,27.538,0,0,0,6.206,6.3,2.705,2.705,0,0,1,1.137,1.871A64.749,64.749,0,0,0,61.5,81.623a1.972,1.972,0,0,0,2.457,1.257,1.888,1.888,0,0,0,1.237-2.429,8.975,8.975,0,0,0-.3-.92,67.322,67.322,0,0,1-2.118-7.189c-.174-.786-.059-1.1.753-1.373a24.357,24.357,0,0,0,7.612-4c3.749-2.984,6.018-6.73,5.986-11.648-.076-.842-.088-1.7-.24-2.528m0,0c-1.294-7.063-5.2-12.694-10-17.818a1.791,1.791,0,0,0-2.338-.374c-5.754,3.3-10.862,7.322-14.094,13.223-2.969,5.415-2.612,10.765.883,15.882a27.538,27.538,0,0,0,6.206,6.3,2.705,2.705,0,0,1,1.137,1.871A64.749,64.749,0,0,0,61.5,81.623a1.972,1.972,0,0,0,2.457,1.257,1.888,1.888,0,0,0,1.237-2.429,8.975,8.975,0,0,0-.3-.92,67.322,67.322,0,0,1-2.118-7.189c-.174-.786-.059-1.1.753-1.373a24.357,24.357,0,0,0,7.612-4c3.749-2.984,6.018-6.73,5.986-11.648-.076-.842-.088-1.7-.24-2.528m0,0c-1.294-7.063-5.2-12.694-10-17.818a1.791,1.791,0,0,0-2.338-.374c-5.754,3.3-10.862,7.322-14.094,13.223-2.969,5.415-2.612,10.765.883,15.882a27.538,27.538,0,0,0,6.206,6.3,2.705,2.705,0,0,1,1.137,1.871A64.749,64.749,0,0,0,61.5,81.623a1.972,1.972,0,0,0,2.457,1.257,1.888,1.888,0,0,0,1.237-2.429,8.975,8.975,0,0,0-.3-.92,67.322,67.322,0,0,1-2.118-7.189c-.174-.786-.059-1.1.753-1.373a24.357,24.357,0,0,0,7.612-4c3.749-2.984,6.018-6.73,5.986-11.648-.076-.842-.088-1.7-.24-2.528m0,0c-1.294-7.063-5.2-12.694-10-17.818a1.791,1.791,0,0,0-2.338-.374c-5.754,3.3-10.862,7.322-14.094,13.223-2.969,5.415-2.612,10.765.883,15.882a27.538,27.538,0,0,0,6.206,6.3,2.705,2.705,0,0,1,1.137,1.871A64.749,64.749,0,0,0,61.5,81.623a1.972,1.972,0,0,0,2.457,1.257,1.888,1.888,0,0,0,1.237-2.429,8.975,8.975,0,0,0-.3-.92,67.322,67.322,0,0,1-2.118-7.189c-.174-.786-.059-1.1.753-1.373a24.357,24.357,0,0,0,7.612-4c3.749-2.984,6.018-6.73,5.986-11.648-.076-.842-.088-1.7-.24-2.528m0,0c-1.294-7.063-5.2-12.694-10-17.818a1.791,1.791,0,0,0-2.338-.374c-5.754,3.3-10.862,7.322-14.094,13.223-2.969,5.415-2.612,10.765.883,15.882a27.538,27.538,0,0,0,6.206,6.3,2.705,2.705,0,0,1,1.137,1.871A64.749,64.749,0,0,0,61.5,81.623a1.972,1.972,0,0,0,2.457,1.257,1.888,1.888,0,0,0,1.237-2.429,8.975,8.975,0,0,0-.3-.92,67.322,67.322,0,0,1-2.118-7.189c-.174-.786-.059-1.1.753-1.373a24.357,24.357,0,0,0,7.612-4c3.749-2.984,6.018-6.73,5.986-11.648-.076-.842-.088-1.7-.24-2.528m0,0c-1.294-7.063-5.2-12.694-10-17.818a1.791,1.791,0,0,0-2.338-.374c-5.754,3.3-10.862,7.322-14.094,13.223-2.969,5.415-2.612,10.765.883,15.882a27.538,27.538,0,0,0,6.206,6.3,2.705,2.705,0,0,1,1.137,1.871A64.749,64.749,0,0,0,61.5,81.623a1.972,1.972,0,0,0,2.457,1.257,1.888,1.888,0,0,0,1.237-2.429,8.975,8.975,0,0,0-.3-.92,67.322,67.322,0,0,1-2.118-7.189c-.174-.786-.059-1.1.753-1.373a24.357,24.357,0,0,0,7.612-4c3.749-2.984,6.018-6.73,5.986-11.648-.076-.842-.088-1.7-.24-2.528m0,0c-1.294-7.063-5.2-12.694-10-17.818a1.791,1.791,0,0,0-2.338-.374c-5.754,3.3-10.862,7.322-14.094,13.223-2.969,5.415-2.612,10.765.883,15.882a27.538,27.538,0,0,0,6.206,6.3,2.705,2.705,0,0,1,1.137,1.871A64.749,64.749,0,0,0,61.5,81.623a1.972,1.972,0,0,0,2.457,1.257,1.888,1.888,0,0,0,1.237-2.429,8.975,8.975,0,0,0-.3-.92,67.322,67.322,0,0,1-2.118-7.189c-.174-.786-.059-1.1.753-1.373a24.357,24.357,0,0,0,7.612-4c3.749-2.984,6.018-6.73,5.986-11.648-.076-.842-.088-1.7-.24-2.528m0,0c-1.294-7.063-5.2-12.694-10-17.818a1.791,1.791,0,0,0-2.338-.374c-5.754,3.3-10.862,7.322-14.094,13.223-2.969,5.415-2.612,10.765.883,15.882a27.538,27.538,0,0,0,6.206,6.3,2.705,2.705,0,0,1,1.137,1.871A64.749,64.749,0,0,0,61.5,81.623a1.972,1.972,0,0,0,2.457,1.257,1.888,1.888,0,0,0,1.237-2.429,8.975,8.975,0,0,0-.3-.92,67.322,67.322,0,0,1-2.118-7.189c-.174-.786-.059-1.1.753-1.373a24.357,24.357,0,0,0,7.612-4c3.749-2.984,6.018-6.73,5.986-11.648-.076-.842-.088-1.7-.24-2.528m48.269,3.018c-.186-.058-.205-.211-.227-.374a20.228,20.228,0,0,0-4.375-9.974c-3.722-4.685-8.622-7.81-13.974-10.311-1.012-.473-1.917-.861-1.377-2.147a22.224,22.224,0,0,1-4.575-.507,116.878,116.878,0,0,0-21.882-4.765,2.146,2.146,0,0,1-1.518-.822C74.45,23.626,71.5,20.5,68.464,17.449c-.817-.82-2.387-1.57-2.242-2.484.134-.861,1.629-1.545,2.575-2.244,5.225-3.855,10.722-7.174,17.234-8.448,5.932-1.16,10.874.953,13.637,5.859.472.839.624,2.123,1.313,2.5s1.846-.158,2.8-.291a1.034,1.034,0,0,1,.245-.012c.641.061.775-.216.575-.784C102.646,5.952,99.069,2,93.136.507,88.649-.626,84.324.282,80.111,1.837a59.506,59.506,0,0,0-16.65,9.945c-.729.59-1.117.512-1.792-.041A60.783,60.783,0,0,0,48.051,3.065C43.515,1.031,38.833-.4,33.761.267c-5.881.772-9.854,4.069-12.3,9.321-.137.294-.5.735.176.791a16.087,16.087,0,0,1,2.981.614c.6.165.655-.337.841-.655a13.122,13.122,0,0,1,3-3.632c3.57-2.9,7.666-3.147,11.908-2.169,7.15,1.643,13.087,5.573,18.73,10.03.7.556.164.769-.156,1.065a103.977,103.977,0,0,0-10.678,11.32,1.951,1.951,0,0,1-1.413.774,104.384,104.384,0,0,0-20.6,4.355c-2.335.769-2.333.774-2.575-1.655a.791.791,0,0,0-.1-.218,7.383,7.383,0,0,0-1.32.214c-.8.269-1.993-.291-2.35.405-.318.621.064,1.655.284,2.465.235.864-.1,1.165-.856,1.492a43.864,43.864,0,0,0-8.862,5.059c-4.7,3.515-8.341,7.788-9.857,13.586A5.313,5.313,0,0,1,0,55.571v5.578a16.669,16.669,0,0,0,1.438,5.207c.67,1.344.89,1.436,1.983.459.333-.3.668-.592,1.027-.859,1.3-.961,1.333-1.026.782-2.509-2.027-5.469-.868-10.44,2.538-14.96,3.171-4.209,7.495-7,12.2-9.27.848-.41,1.054-.015,1.235.689a111.555,111.555,0,0,0,6.3,17.308,2.711,2.711,0,0,1-.081,2.421A110.835,110.835,0,0,0,21.606,75.7c-.237.842-.257,1.805-1.518,1.841-.313.01-.509.381-.665.67a12.2,12.2,0,0,1-1.1,1.742c-.58.738-.389,1.3.425,1.616,1.007.4,1.139,1.084.959,2.04a53.812,53.812,0,0,0-.951,12.415,30.435,30.435,0,0,0,2.369,11.32c2.907,6.488,7.92,9.862,15.116,9.9,5.062.024,9.683-1.6,14.094-3.892a60.244,60.244,0,0,0,11.182-7.56,1.475,1.475,0,0,1,2.223.032A60.356,60.356,0,0,0,77.365,114.3c4.348,1.936,8.84,3.307,13.7,2.742,6.473-.755,10.852-4.306,13.371-10.132,2.338-5.413,2.506-11.136,2.061-16.91a65.4,65.4,0,0,0-.89-6.72,1.252,1.252,0,0,1,.795-1.558c.482-.216.951-.461,1.421-.7A38.662,38.662,0,0,0,121.1,70.536c2.176-2.809,3.932-5.852,3.925-9.576v-.007a.649.649,0,0,0,.01-.119c.017-.381-.115-.779.115-1.14ZM104.8,77.732c-.6.286-.8.228-.981-.449A112.924,112.924,0,0,0,97.269,59.1a1.206,1.206,0,0,1-.029-1.133c1.477-3.142,2.819-6.337,4-9.6a92.9,92.9,0,0,0,3-10.044c5.587,2.6,10.678,5.7,14.129,10.879,4.235,6.361,3.78,13.608-1.174,19.494A36.1,36.1,0,0,1,104.8,77.732M91.347,112.688a16.882,16.882,0,0,1-7.487-.558c-6.991-1.96-12.84-5.913-18.537-10.328A124.944,124.944,0,0,0,76.937,89.533a1.386,1.386,0,0,1,.949-.471,106.119,106.119,0,0,0,22.506-5.25c.335-.124.7-.335.807.281,1.24,7.014,2.034,14.028-.719,20.887-1.655,4.124-4.59,6.924-9.133,7.708M61.857,98.641c-2.883-2.676-5.609-5.5-8.429-8.673a156.937,156.937,0,0,0,18.5-.218,122.632,122.632,0,0,1-8.6,8.855c-.543.5-.866.59-1.465.036m-2.719,3.748c-5.494,4.357-11.231,8.276-18.183,10.02a16.256,16.256,0,0,1-7.612.289c-4.868-1.094-7.6-4.382-9.131-8.86a26.835,26.835,0,0,1-1.289-9.176,53.836,53.836,0,0,1,.961-10c.117-.65.227-.915.968-.624a92.82,92.82,0,0,0,22.181,5.442,1.663,1.663,0,0,1,1.13.6A141.314,141.314,0,0,0,59.1,101.486c.337.3.538.507.039.9M27.675,35.726a99.45,99.45,0,0,1,16.464-3.6,162.937,162.937,0,0,0-13.63,21.644A108.2,108.2,0,0,1,25.452,39.75c-.883-3.057-.868-3.067,2.223-4.025m23.46-4.365c3.944-.228,7.883-.512,12.449-.512,3.179-.044,6.954.228,10.732.5a2.841,2.841,0,0,1,2.213,1.218,136.887,136.887,0,0,1,15.7,25.162,1.891,1.891,0,0,1,0,1.89,141.024,141.024,0,0,1-16.07,25.227,2.44,2.44,0,0,1-1.836.963,129.273,129.273,0,0,1-18.669.454c-1.665-.078-3.328-.264-4.993-.335a1.59,1.59,0,0,1-1.306-.708A148.124,148.124,0,0,1,33.089,59.4a1.815,1.815,0,0,1,0-1.8A145.179,145.179,0,0,1,48.721,32.673a3.05,3.05,0,0,1,2.413-1.313M87.05,33.013a97.576,97.576,0,0,1,12.444,3.363c.853.294.973.609.756,1.444a120.5,120.5,0,0,1-5.064,15.117c-.086.2-.064.5-.479.609A151.43,151.43,0,0,0,81.167,31.892c2.181.415,4.037.747,5.883,1.121M100.154,79c.235.837-.386.854-.829,1.024a92.512,92.512,0,0,1-14.75,4.158c-1.154.23-2.311.432-3.785.706A164.465,164.465,0,0,0,94.635,63.214,113.142,113.142,0,0,1,100.154,79M44.315,85.214a70.492,70.492,0,0,1-7.685-1.528,79.93,79.93,0,0,1-10.876-3.477c-.5-.2-.961-.3-.746-1.08A108.3,108.3,0,0,1,30.5,63.2,145.6,145.6,0,0,0,44.315,85.214m7.018-21.505a27.538,27.538,0,0,0,6.206,6.3,2.705,2.705,0,0,1,1.137,1.871A64.749,64.749,0,0,0,61.5,81.623a1.972,1.972,0,0,0,2.457,1.257,1.888,1.888,0,0,0,1.237-2.429,8.975,8.975,0,0,0-.3-.92,67.322,67.322,0,0,1-2.118-7.189c-.174-.786-.059-1.1.753-1.373a24.357,24.357,0,0,0,7.612-4c3.749-2.984,6.018-6.73,5.986-11.648-.076-.842-.088-1.7-.24-2.528-1.294-7.063-5.2-12.694-10-17.818a1.791,1.791,0,0,0-2.338-.374c-5.754,3.3-10.862,7.322-14.094,13.223-2.969,5.415-2.612,10.765.883,15.882M76.883,52.8c-1.294-7.063-5.2-12.694-10-17.818a1.791,1.791,0,0,0-2.338-.374c-5.754,3.3-10.862,7.322-14.094,13.223-2.969,5.415-2.612,10.765.883,15.882a27.538,27.538,0,0,0,6.206,6.3,2.705,2.705,0,0,1,1.137,1.871A64.749,64.749,0,0,0,61.5,81.623a1.972,1.972,0,0,0,2.457,1.257,1.888,1.888,0,0,0,1.237-2.429,8.975,8.975,0,0,0-.3-.92,67.322,67.322,0,0,1-2.118-7.189c-.174-.786-.059-1.1.753-1.373a24.357,24.357,0,0,0,7.612-4c3.749-2.984,6.018-6.73,5.986-11.648-.076-.842-.088-1.7-.24-2.528m0,0c-1.294-7.063-5.2-12.694-10-17.818a1.791,1.791,0,0,0-2.338-.374c-5.754,3.3-10.862,7.322-14.094,13.223-2.969,5.415-2.612,10.765.883,15.882a27.538,27.538,0,0,0,6.206,6.3,2.705,2.705,0,0,1,1.137,1.871A64.749,64.749,0,0,0,61.5,81.623a1.972,1.972,0,0,0,2.457,1.257,1.888,1.888,0,0,0,1.237-2.429,8.975,8.975,0,0,0-.3-.92,67.322,67.322,0,0,1-2.118-7.189c-.174-.786-.059-1.1.753-1.373a24.357,24.357,0,0,0,7.612-4c3.749-2.984,6.018-6.73,5.986-11.648-.076-.842-.088-1.7-.24-2.528m0,0c-1.294-7.063-5.2-12.694-10-17.818a1.791,1.791,0,0,0-2.338-.374c-5.754,3.3-10.862,7.322-14.094,13.223-2.969,5.415-2.612,10.765.883,15.882a27.538,27.538,0,0,0,6.206,6.3,2.705,2.705,0,0,1,1.137,1.871A64.749,64.749,0,0,0,61.5,81.623a1.972,1.972,0,0,0,2.457,1.257,1.888,1.888,0,0,0,1.237-2.429,8.975,8.975,0,0,0-.3-.92,67.322,67.322,0,0,1-2.118-7.189c-.174-.786-.059-1.1.753-1.373a24.357,24.357,0,0,0,7.612-4c3.749-2.984,6.018-6.73,5.986-11.648-.076-.842-.088-1.7-.24-2.528m0,0c-1.294-7.063-5.2-12.694-10-17.818a1.791,1.791,0,0,0-2.338-.374c-5.754,3.3-10.862,7.322-14.094,13.223-2.969,5.415-2.612,10.765.883,15.882a27.538,27.538,0,0,0,6.206,6.3,2.705,2.705,0,0,1,1.137,1.871A64.749,64.749,0,0,0,61.5,81.623a1.972,1.972,0,0,0,2.457,1.257,1.888,1.888,0,0,0,1.237-2.429,8.975,8.975,0,0,0-.3-.92,67.322,67.322,0,0,1-2.118-7.189c-.174-.786-.059-1.1.753-1.373a24.357,24.357,0,0,0,7.612-4c3.749-2.984,6.018-6.73,5.986-11.648-.076-.842-.088-1.7-.24-2.528m0,0c-1.294-7.063-5.2-12.694-10-17.818a1.791,1.791,0,0,0-2.338-.374c-5.754,3.3-10.862,7.322-14.094,13.223-2.969,5.415-2.612,10.765.883,15.882a27.538,27.538,0,0,0,6.206,6.3,2.705,2.705,0,0,1,1.137,1.871A64.749,64.749,0,0,0,61.5,81.623a1.972,1.972,0,0,0,2.457,1.257,1.888,1.888,0,0,0,1.237-2.429,8.975,8.975,0,0,0-.3-.92,67.322,67.322,0,0,1-2.118-7.189c-.174-.786-.059-1.1.753-1.373a24.357,24.357,0,0,0,7.612-4c3.749-2.984,6.018-6.73,5.986-11.648-.076-.842-.088-1.7-.24-2.528m0,0c-1.294-7.063-5.2-12.694-10-17.818a1.791,1.791,0,0,0-2.338-.374c-5.754,3.3-10.862,7.322-14.094,13.223-2.969,5.415-2.612,10.765.883,15.882a27.538,27.538,0,0,0,6.206,6.3,2.705,2.705,0,0,1,1.137,1.871A64.749,64.749,0,0,0,61.5,81.623a1.972,1.972,0,0,0,2.457,1.257,1.888,1.888,0,0,0,1.237-2.429,8.975,8.975,0,0,0-.3-.92,67.322,67.322,0,0,1-2.118-7.189c-.174-.786-.059-1.1.753-1.373a24.357,24.357,0,0,0,7.612-4c3.749-2.984,6.018-6.73,5.986-11.648-.076-.842-.088-1.7-.24-2.528m0,0c-1.294-7.063-5.2-12.694-10-17.818a1.791,1.791,0,0,0-2.338-.374c-5.754,3.3-10.862,7.322-14.094,13.223-2.969,5.415-2.612,10.765.883,15.882a27.538,27.538,0,0,0,6.206,6.3,2.705,2.705,0,0,1,1.137,1.871A64.749,64.749,0,0,0,61.5,81.623a1.972,1.972,0,0,0,2.457,1.257,1.888,1.888,0,0,0,1.237-2.429,8.975,8.975,0,0,0-.3-.92,67.322,67.322,0,0,1-2.118-7.189c-.174-.786-.059-1.1.753-1.373a24.357,24.357,0,0,0,7.612-4c3.749-2.984,6.018-6.73,5.986-11.648-.076-.842-.088-1.7-.24-2.528m0,0c-1.294-7.063-5.2-12.694-10-17.818a1.791,1.791,0,0,0-2.338-.374c-5.754,3.3-10.862,7.322-14.094,13.223-2.969,5.415-2.612,10.765.883,15.882a27.538,27.538,0,0,0,6.206,6.3,2.705,2.705,0,0,1,1.137,1.871A64.749,64.749,0,0,0,61.5,81.623a1.972,1.972,0,0,0,2.457,1.257,1.888,1.888,0,0,0,1.237-2.429,8.975,8.975,0,0,0-.3-.92,67.322,67.322,0,0,1-2.118-7.189c-.174-.786-.059-1.1.753-1.373a24.357,24.357,0,0,0,7.612-4c3.749-2.984,6.018-6.73,5.986-11.648-.076-.842-.088-1.7-.24-2.528m0,0c-1.294-7.063-5.2-12.694-10-17.818a1.791,1.791,0,0,0-2.338-.374c-5.754,3.3-10.862,7.322-14.094,13.223-2.969,5.415-2.612,10.765.883,15.882a27.538,27.538,0,0,0,6.206,6.3,2.705,2.705,0,0,1,1.137,1.871A64.749,64.749,0,0,0,61.5,81.623a1.972,1.972,0,0,0,2.457,1.257,1.888,1.888,0,0,0,1.237-2.429,8.975,8.975,0,0,0-.3-.92,67.322,67.322,0,0,1-2.118-7.189c-.174-.786-.059-1.1.753-1.373a24.357,24.357,0,0,0,7.612-4c3.749-2.984,6.018-6.73,5.986-11.648-.076-.842-.088-1.7-.24-2.528m0,0c-1.294-7.063-5.2-12.694-10-17.818a1.791,1.791,0,0,0-2.338-.374c-5.754,3.3-10.862,7.322-14.094,13.223-2.969,5.415-2.612,10.765.883,15.882a27.538,27.538,0,0,0,6.206,6.3,2.705,2.705,0,0,1,1.137,1.871A64.749,64.749,0,0,0,61.5,81.623a1.972,1.972,0,0,0,2.457,1.257,1.888,1.888,0,0,0,1.237-2.429,8.975,8.975,0,0,0-.3-.92,67.322,67.322,0,0,1-2.118-7.189c-.174-.786-.059-1.1.753-1.373a24.357,24.357,0,0,0,7.612-4c3.749-2.984,6.018-6.73,5.986-11.648-.076-.842-.088-1.7-.24-2.528m0,0c-1.294-7.063-5.2-12.694-10-17.818a1.791,1.791,0,0,0-2.338-.374c-5.754,3.3-10.862,7.322-14.094,13.223-2.969,5.415-2.612,10.765.883,15.882a27.538,27.538,0,0,0,6.206,6.3,2.705,2.705,0,0,1,1.137,1.871A64.749,64.749,0,0,0,61.5,81.623a1.972,1.972,0,0,0,2.457,1.257,1.888,1.888,0,0,0,1.237-2.429,8.975,8.975,0,0,0-.3-.92,67.322,67.322,0,0,1-2.118-7.189c-.174-.786-.059-1.1.753-1.373a24.357,24.357,0,0,0,7.612-4c3.749-2.984,6.018-6.73,5.986-11.648-.076-.842-.088-1.7-.24-2.528m0,0c-1.294-7.063-5.2-12.694-10-17.818a1.791,1.791,0,0,0-2.338-.374c-5.754,3.3-10.862,7.322-14.094,13.223-2.969,5.415-2.612,10.765.883,15.882a27.538,27.538,0,0,0,6.206,6.3,2.705,2.705,0,0,1,1.137,1.871A64.749,64.749,0,0,0,61.5,81.623a1.972,1.972,0,0,0,2.457,1.257,1.888,1.888,0,0,0,1.237-2.429,8.975,8.975,0,0,0-.3-.92,67.322,67.322,0,0,1-2.118-7.189c-.174-.786-.059-1.1.753-1.373a24.357,24.357,0,0,0,7.612-4c3.749-2.984,6.018-6.73,5.986-11.648-.076-.842-.088-1.7-.24-2.528" transform="translate(0 0)" fill="#193a43"/><path d="M28.915,284.326a6.463,6.463,0,0,1-12.926-.007,6.464,6.464,0,0,1,12.926.007" transform="translate(-12.08 -210.523)" fill="#fefefe"/><path d="M125.152,181.053l-.1.056-.029,0c.007,3.724-1.748,6.767-3.925,9.576a38.662,38.662,0,0,1-13.278,10.479c-.469.243-.939.488-1.421.7a1.252,1.252,0,0,0-.795,1.558,65.4,65.4,0,0,1,.89,6.72c.445,5.774.276,11.5-2.061,16.91-2.519,5.825-6.9,9.377-13.371,10.132-4.864.565-9.355-.806-13.7-2.742a60.355,60.355,0,0,1-13.627-8.472,1.475,1.475,0,0,0-2.223-.032,60.243,60.243,0,0,1-11.182,7.56c-4.411,2.293-9.033,3.916-14.094,3.892-7.2-.036-12.209-3.411-15.116-9.9a30.435,30.435,0,0,1-2.369-11.32,53.812,53.812,0,0,1,.951-12.415c.181-.956.049-1.645-.959-2.04-.814-.318-1-.878-.425-1.616a12.2,12.2,0,0,0,1.1-1.742c.156-.289.352-.66.665-.67,1.262-.036,1.281-1,1.518-1.841a110.834,110.834,0,0,1,5.817-16.066,2.711,2.711,0,0,0,.081-2.421,111.555,111.555,0,0,1-6.3-17.308c-.181-.7-.386-1.1-1.235-.689-4.707,2.268-9.03,5.061-12.2,9.27-3.406,4.52-4.565,9.491-2.538,14.96.55,1.482.518,1.548-.782,2.509-.359.267-.694.56-1.027.859-1.093.978-1.313.886-1.983-.459A16.669,16.669,0,0,1,0,181.3c.65,1.376.7,2.941,1.406,4.3.313.6.572,1.237.89,1.931a14.166,14.166,0,0,1,2.783-2.254c.416-.218.286-.476.156-.8-3.23-8.128-.159-14.448,5.881-19.856a37.939,37.939,0,0,1,9.243-5.811c.545-.26.78-.3.966.429a108.208,108.208,0,0,0,6.722,18.509,1.6,1.6,0,0,1-.029,1.47,112.09,112.09,0,0,0-6.463,18.092c-.161.611-.276,1.024-1,.556-.416-.269-.56.1-.721.376a7.734,7.734,0,0,1-1.069,1.752c-.961.922-.428,1.3.457,1.594s1.088.716.907,1.7c-1.232,6.638-1.653,13.3-.086,19.958a23.445,23.445,0,0,0,1.99,5.442c3.2,6.158,9.456,9.224,16.615,8.3,7.042-.91,13-4.185,18.645-8.176,1.555-1.1,3.061-2.281,4.507-3.52.643-.551.988-.463,1.6.024a59.851,59.851,0,0,0,16.784,9.94c3.907,1.419,7.925,2.283,12.084,1.47,6.942-1.354,10.876-5.905,12.811-12.373,1.6-5.362,1.523-10.845.888-16.338-.183-1.6-.421-3.2-.756-4.78a1.16,1.16,0,0,1,.778-1.567,40.808,40.808,0,0,0,13.613-9.637,19.881,19.881,0,0,0,5.35-10.925c.022-.073.051-.114.088-.116s.071.017.115.073" transform="translate(0 -120.147)" fill="#fefefe"/><path d="M511.022,246.04v1.213l-.1.056-.029,0-.078-.01a1.391,1.391,0,0,1,.2-1.257" transform="translate(-385.87 -186.347)" fill="#6e8288"/><path d="M72.025,63.476A6.521,6.521,0,0,1,65.6,69.917a6.414,6.414,0,1,1,6.421-6.441" transform="translate(-44.648 -43.239)" fill="#193a43"/><path d="M412.788,73.091a6.465,6.465,0,0,1-12.928.051,6.59,6.59,0,0,1,6.578-6.432,6.5,6.5,0,0,1,6.35,6.381" transform="translate(-302.085 -50.525)" fill="#193a43"/><path d="M226.8,162.484c.032,4.918-2.237,8.664-5.986,11.648a24.358,24.358,0,0,1-7.612,4c-.812.269-.927.587-.753,1.373a67.327,67.327,0,0,0,2.118,7.189,8.969,8.969,0,0,1,.3.92,1.888,1.888,0,0,1-1.237,2.429,1.972,1.972,0,0,1-2.457-1.257,64.748,64.748,0,0,1-2.819-9.746,2.705,2.705,0,0,0-1.137-1.871,27.538,27.538,0,0,1-6.206-6.3c-3.494-5.117-3.851-10.466-.883-15.882,3.233-5.9,8.341-9.925,14.094-13.223a1.791,1.791,0,0,1,2.338.374c4.8,5.124,8.707,10.755,10,17.818.152.83.164,1.686.24,2.528" transform="translate(-149.677 -107.16)" fill="#fefefe"/><path d="M235.606,82.536a101.486,101.486,0,0,0-18.948-.006c1.7-1.827,3.187-3.459,4.718-5.046,1.348-1.4,2.749-2.746,4.127-4.115.292-.29.535-.573.991-.14a113.58,113.58,0,0,1,9.112,9.308" transform="translate(-163.68 -55.293)" fill="#fefefe"/><path d="M28.915,284.326a6.463,6.463,0,0,1-12.926-.007,6.464,6.464,0,0,1,12.926.007" transform="translate(-12.08 -210.523)" fill="#193a43"/><path d="M226.8,162.484c.032,4.918-2.237,8.664-5.986,11.648a24.358,24.358,0,0,1-7.612,4c-.812.269-.927.587-.753,1.373a67.327,67.327,0,0,0,2.118,7.189,8.969,8.969,0,0,1,.3.92,1.888,1.888,0,0,1-1.237,2.429,1.972,1.972,0,0,1-2.457-1.257,64.748,64.748,0,0,1-2.819-9.746,2.705,2.705,0,0,0-1.137-1.871,27.538,27.538,0,0,1-6.206-6.3c-3.494-5.117-3.851-10.466-.883-15.882,3.233-5.9,8.341-9.925,14.094-13.223a1.791,1.791,0,0,1,2.338.374c4.8,5.124,8.707,10.755,10,17.818.152.83.164,1.686.24,2.528" transform="translate(-149.677 -107.16)" fill="#193a43"/></g></g></g></svg>